HIERARCHY
ROOT hip
{
  OFFSET 0 0 0
  CHANNELS 6 Xposition Yposition Zposition Zrotation Yrotation Xrotation
  JOINT abdomen
  {
    OFFSET 0 20.6881 -0.73152
    CHANNELS 3 Zrotation Xrotation Yrotation
    JOINT chest
    {
      OFFSET 0 11.7043 -0.48768
      CHANNELS 3 Zrotation Xrotation Yrotation
      JOINT neck
      {
        OFFSET 0 22.1894 -2.19456
        CHANNELS 3 Zrotation Xrotation Yrotation
        JOINT head
        {
          OFFSET -0.24384 7.07133 1.2192
          CHANNELS 3 Zrotation Xrotation Yrotation
          JOINT leftEye
          {
            OFFSET 4.14528 8.04674 8.04672
            CHANNELS 3 Zrotation Xrotation Yrotation
            End Site
            {
              OFFSET 1 0 0
            }
          }
          JOINT rightEye
          {
            OFFSET -3.6576 8.04674 8.04672
            CHANNELS 3 Zrotation Xrotation Yrotation
            End Site
            {
              OFFSET 1 0 0
            }
          }
        }
      }
      JOINT rCollar
      {
        OFFSET -2.68224 19.2634 -4.8768
        CHANNELS 3 Zrotation Xrotation Yrotation
        JOINT rShldr
        {
          OFFSET -8.77824 -1.95073 1.46304
          CHANNELS 3 Zrotation Xrotation Yrotation
          JOINT rForeArm
          {
            OFFSET -28.1742 -1.7115 0.48768
            CHANNELS 3 Zrotation Xrotation Yrotation
            JOINT rHand
            {
              OFFSET -22.5879 0.773209 7.07136
              CHANNELS 3 Zrotation Xrotation Yrotation
              JOINT rThumb1
              {
                OFFSET -1.2192 -0.487915 3.41376
                CHANNELS 3 Zrotation Xrotation Yrotation
                JOINT rThumb2
                {
                  OFFSET -3.37035 -0.52449 3.41376
                  CHANNELS 3 Zrotation Xrotation Yrotation
                  End Site
                  {
                    OFFSET -1.78271 -1.18214 1.43049
                  }
                }
              }
              JOINT rIndex1
              {
                OFFSET -7.75947 0.938293 5.60832
                CHANNELS 3 Zrotation Xrotation Yrotation
                JOINT rIndex2
                {
                  OFFSET -2.54057 -0.884171 1.56538
                  CHANNELS 3 Zrotation Xrotation Yrotation
                  End Site
                  {
                    OFFSET -1.62519 -0.234802 1.16502
                  }
                }
              }
              JOINT rMid1
              {
                OFFSET -8.24714 1.18213 3.41376
                CHANNELS 3 Zrotation Xrotation Yrotation
                JOINT rMid2
                {
                  OFFSET -3.10165 -0.590103 1.0647
                  CHANNELS 3 Zrotation Xrotation Yrotation
                  End Site
                  {
                    OFFSET -2.48547 -0.328903 0.83742
                  }
                }
              }
              JOINT rRing1
              {
                OFFSET -8.82822 0.546677 1.51678
                CHANNELS 3 Zrotation Xrotation Yrotation
                JOINT rRing2
                {
                  OFFSET -2.60934 -0.819778 -0.0198488
                  CHANNELS 3 Zrotation Xrotation Yrotation
                  End Site
                  {
                    OFFSET -2.33842 -0.294052 0.168128
                  }
                }
              }
              JOINT rPinky1
              {
                OFFSET -8.27202 -0.0477905 -0.4584
                CHANNELS 3 Zrotation Xrotation Yrotation
                JOINT rPinky2
                {
                  OFFSET -1.82734 -0.647385 -0.700984
                  CHANNELS 3 Zrotation Xrotation Yrotation
                  End Site
                  {
                    OFFSET -1.69225 -0.51767 -0.607171
                  }
                }
              }
            }
          }
        }
      }
      JOINT lCollar
      {
        OFFSET 2.68224 19.2634 -4.8768
        CHANNELS 3 Zrotation Xrotation Yrotation
        JOINT lShldr
        {
          OFFSET 8.77824 -1.95073 1.46304
          CHANNELS 3 Zrotation Xrotation Yrotation
          JOINT lForeArm
          {
            OFFSET 28.1742 -1.7115 0.48768
            CHANNELS 3 Zrotation Xrotation Yrotation
            JOINT lHand
            {
              OFFSET 22.5879 0.773209 7.07136
              CHANNELS 3 Zrotation Xrotation Yrotation
              JOINT lThumb1
              {
                OFFSET 1.2192 -0.487915 3.41376
                CHANNELS 3 Zrotation Xrotation Yrotation
                JOINT lThumb2
                {
                  OFFSET 3.37035 -0.52449 3.41376
                  CHANNELS 3 Zrotation Xrotation Yrotation
                  End Site
                  {
                    OFFSET 1.78271 -1.18214 1.43049
                  }
                }
              }
              JOINT lIndex1
              {
                OFFSET 7.75947 0.938293 5.60832
                CHANNELS 3 Zrotation Xrotation Yrotation
                JOINT lIndex2
                {
                  OFFSET 2.54057 -0.884171 1.56538
                  CHANNELS 3 Zrotation Xrotation Yrotation
                  End Site
                  {
                    OFFSET 1.62519 -0.234802 1.16502
                  }
                }
              }
              JOINT lMid1
              {
                OFFSET 8.24714 1.18213 3.41376
                CHANNELS 3 Zrotation Xrotation Yrotation
                JOINT lMid2
                {
                  OFFSET 3.10165 -0.590103 1.0647
                  CHANNELS 3 Zrotation Xrotation Yrotation
                  End Site
                  {
                    OFFSET 2.48547 -0.328903 0.83742
                  }
                }
              }
              JOINT lRing1
              {
                OFFSET 8.82822 0.546677 1.51678
                CHANNELS 3 Zrotation Xrotation Yrotation
                JOINT lRing2
                {
                  OFFSET 2.60934 -0.819778 -0.0198488
                  CHANNELS 3 Zrotation Xrotation Yrotation
                  End Site
                  {
                    OFFSET 2.33842 -0.294052 0.168128
                  }
                }
              }
              JOINT lPinky1
              {
                OFFSET 8.27202 -0.0477905 -0.4584
                CHANNELS 3 Zrotation Xrotation Yrotation
                JOINT lPinky2
                {
                  OFFSET 1.82734 -0.647385 -0.700984
                  CHANNELS 3 Zrotation Xrotation Yrotation
                  End Site
                  {
                    OFFSET 1.69225 -0.51767 -0.607171
                  }
                }
              }
            }
          }
        }
      }
    }
  }
  JOINT rButtock
  {
    OFFSET -8.77824 4.35084 1.2192
    CHANNELS 3 Zrotation Xrotation Yrotation
    JOINT rThigh
    {
      OFFSET 0 -1.70687 -2.19456
      CHANNELS 3 Zrotation Xrotation Yrotation
      JOINT rShin
      {
        OFFSET 0 -36.8199 0.73152
        CHANNELS 3 Zrotation Xrotation Yrotation
        JOINT rFoot
        {
          OFFSET 0.73152 -45.1104 -5.12064
          CHANNELS 3 Zrotation Xrotation Yrotation
          End Site
          {
            OFFSET -1.1221 -3.69964 12.103
          }
        }
      }
    }
  }
  JOINT lButtock
  {
    OFFSET 8.77824 4.35084 1.2192
    CHANNELS 3 Zrotation Xrotation Yrotation
    JOINT lThigh
    {
      OFFSET 0 -1.70687 -2.19456
      CHANNELS 3 Zrotation Xrotation Yrotation
      JOINT lShin
      {
        OFFSET 0 -36.8199 0.73152
        CHANNELS 3 Zrotation Xrotation Yrotation
        JOINT lFoot
        {
          OFFSET -0.73152 -45.1104 -5.12064
          CHANNELS 3 Zrotation Xrotation Yrotation
          End Site
          {
            OFFSET 1.1221 -3.69964 12.103
          }
        }
      }
    }
  }
}
MOTION
Frames:	4
Frame Time:	0.03333
4.692524390539413 41.28538921174931 50.91348831218105 -89.55699920654297 66.54920196533203 -87.97879791259766 0.04567904770374298 45.28190612792969 -8.784798622131348 12.170199394226074 -13.648299217224121 -0.031238598749041557 -9.998099327087402 18.50139808654785 -12.477299690246582 31.673797607421875 -24.76839828491211 -18.21860122680664 -0.0 0.0 -0.0 -0.0 0.0 -0.0 -3.816665408197528e-14 -1.908332704098764e-13 -1.908332704098764e-13 52.53719711303711 -8.592201232910156 -11.562600135803223 -28.0259952545166 -30.767602920532227 68.47979736328125 -0.9610379934310913 -26.68499755859375 -4.050639629364014 4.057115199351813e-10 -8.961021369380262e-10 2.1499912961076006e-09 6.618352532683502e-10 -1.7261632123677373e-09 3.7145824194340094e-09 4.057115199351813e-10 -8.961021369380262e-10 2.149978417520515e-09 7.7309088706970215 5.474880218505859 0.41731396317481995 4.0569880788154933e-10 -8.961021369380262e-10 2.149978417520515e-09 2.9055399894714355 0.9651829600334167 0.10290198773145676 4.057115199351813e-10 -8.961021369380262e-10 2.149978417520515e-09 10.27859878540039 0.73180091381073 0.025912299752235413 4.057115199351813e-10 -8.961021369380262e-10 2.1499912961076006e-09 2.2216696739196777 -0.7334870100021362 -0.2089199721813202 -3.816665408197528e-14 -1.908332704098764e-13 -1.908332704098764e-13 -2.8770198822021484 44.04100036621094 -83.21339416503906 26.245201110839844 -45.783897399902344 -95.0877914428711 1.0829399824142456 -28.1781005859375 4.317199230194092 -1.453284381724984e-09 2.1239361380764876e-09 -8.374654303366924e-10 -2.4925241870477066e-09 3.67450736504793e-09 -1.479237732304739e-09 -1.453284381724984e-09 2.1239361380764876e-09 -8.374463900118201e-10 -7.7309088706970215 5.474880218505859 -0.41731396317481995 -1.453284381724984e-09 2.1239361380764876e-09 -8.37459102065452e-10 -2.9055399894714355 0.9651829600334167 -0.10290198773145676 -1.453284381724984e-09 2.1239361380764876e-09 -8.37459102065452e-10 -10.27859878540039 0.73180091381073 -0.025912299752235413 -1.453284381724984e-09 2.1239361380764876e-09 -8.374654303366924e-10 -2.2216696739196777 -0.7334870100021362 0.2089199721813202 -0.0 0.0 -0.0 -128.8529815673828 -47.90499496459961 -139.65399169921875 -177.15098571777344 51.29280090332031 177.30999755859375 0.34495002031326294 -5.783539772033691 1.6184998750686646 -0.0 0.0 -0.0 46.95289611816406 -36.573795318603516 37.39759826660156 0.9679750204086304 65.8584976196289 -3.50538969039917 7.841439247131348 -10.607499122619629 27.693899154663086
4.62663424263728 40.462853435666766 51.58499483861456 -90.34019470214844 67.15480041503906 -87.88749694824219 1.331079363822937 43.38679885864258 -9.20911979675293 12.161600112915039 -13.38339900970459 -0.11167899519205093 -9.90591812133789 18.841999053955078 -12.843199729919434 31.069597244262695 -25.631999969482422 -18.898799896240234 -0.0 0.0 -0.0 -0.0 0.0 -0.0 1.5266661632790113e-13 -5.979442201792251e-13 8.269441717761311e-14 51.87889862060547 -8.1345796585083 -10.862000465393066 -28.207199096679688 -32.03989791870117 70.51629638671875 -1.000580072402954 -27.177898406982422 -4.138000011444092 -8.594367439940243e-10 4.820702725893966e-10 -2.5974888906432625e-09 -1.4306007489750527e-09 1.0036048658790264e-09 -4.501521377875406e-09 -8.594239764292411e-10 4.820575605357647e-10 -2.5974888906432625e-09 7.7309088706970215 5.474880218505859 0.41731396317481995 -8.594367439940243e-10 4.820829846430286e-10 -2.5975015471857432e-09 2.9055399894714355 0.9651829600334167 0.10290198773145676 -8.594239764292411e-10 4.820829846430286e-10 -2.5974888906432625e-09 10.27859878540039 0.73180091381073 0.025912299752235413 -8.594367439940243e-10 4.820829846430286e-10 -2.5974888906432625e-09 2.2216696739196777 -0.7334870100021362 -0.2089199721813202 1.5266661632790113e-13 -5.979442201792251e-13 8.269441717761311e-14 -4.155580043792725 45.26629638671875 -81.27999877929688 26.350399017333984 -45.56239318847656 -94.62389373779297 0.9564683437347412 -26.64130210876465 4.0423903465271 6.863509205423668e-10 -2.6082074278122036e-09 1.2965911677653708e-09 1.1613985329006482e-09 -4.490688709779533e-09 2.2519470732618174e-09 6.863509205423668e-10 -2.6082200843546843e-09 1.2965976070589136e-09 -7.7309088706970215 5.474880218505859 -0.41731396317481995 6.863509205423668e-10 -2.6082074278122036e-09 1.2965911677653708e-09 -2.9055399894714355 0.9651829600334167 -0.10290198773145676 6.863509205423668e-10 -2.6082074278122036e-09 1.29657851122289e-09 -10.27859878540039 0.73180091381073 -0.025912299752235413 6.863509205423668e-10 -2.6082074278122036e-09 1.2965721829516497e-09 -2.2216696739196777 -0.7334870100021362 0.2089199721813202 -0.0 0.0 -0.0 -125.5679931640625 -51.23869705200195 -133.4609832763672 -177.0469970703125 54.92070388793945 177.44998168945312 -0.04864349588751793 -7.065959453582764 -0.009144319221377373 -0.0 0.0 -0.0 50.36199951171875 -37.9951057434082 40.93709945678711 1.2050502300262451 68.53620147705078 -3.738980293273926 7.773098945617676 -11.120499610900879 26.57849884033203
4.5656142397268855 39.68431773821745 52.29890024456861 -91.83799743652344 67.82060241699219 -88.8814926147461 1.9038395881652832 41.87479782104492 -9.32625961303711 12.288799285888672 -13.223698616027832 -0.1628119945526123 -9.806438446044922 19.074298858642578 -13.245000839233398 30.597797393798828 -26.26869773864746 -19.667497634887695 -0.0 0.0 -0.0 -0.0 0.0 -0.0 2.289999244918517e-13 -8.396663898034562e-13 2.0991659745086405e-13 51.47909927368164 -7.453129291534424 -10.34579849243164 -28.335796356201172 -33.28799819946289 72.53779602050781 -1.0337001085281372 -27.579498291015625 -4.209819793701172 -1.5297448863194063e-09 1.2794861836695759e-09 -4.8339083846826725e-09 -2.5444817364217442e-09 2.5291897465251623e-09 -8.37443181467279e-09 -1.5297448863194063e-09 1.279460759562312e-09 -4.8339083846826725e-09 7.7309088706970215 5.474880218505859 0.41731396317481995 -1.5297448863194063e-09 1.2794861836695759e-09 -4.8339083846826725e-09 2.9055399894714355 0.9651829600334167 0.10290198773145676 -1.5297448863194063e-09 1.2794861836695759e-09 -4.8339083846826725e-09 10.27859878540039 0.73180091381073 0.025912299752235413 -1.5297448863194063e-09 1.2794861836695759e-09 -4.8339021674337346e-09 2.2216696739196777 -0.7334870100021362 -0.2089199721813202 2.289999244918517e-13 -8.396663898034562e-13 2.0991659745086405e-13 -5.061838626861572 46.46159744262695 -79.55109405517578 26.45659828186035 -45.33259963989258 -94.1448974609375 0.8579689860343933 -25.333297729492188 3.815040349960327 1.6633918686892457e-09 -5.173999007013208e-09 2.308249369420423e-09 2.8312150401887948e-09 -8.92148044329133e-09 4.0183887328737455e-09 1.6633918686892457e-09 -5.174011441511084e-09 2.3082682432118418e-09 -7.7309088706970215 5.474880218505859 -0.41731396317481995 1.6634045252317264e-09 -5.173999007013208e-09 2.308262025962904e-09 -2.9055399894714355 0.9651829600334167 -0.10290198773145676 1.6633918686892457e-09 -5.173999007013208e-09 2.308249369420423e-09 -10.27859878540039 0.73180091381073 -0.025912299752235413 1.6634045252317264e-09 -5.173999007013208e-09 2.3082429301268803e-09 -2.2216696739196777 -0.7334870100021362 0.2089199721813202 -0.0 0.0 -0.0 -121.64799499511719 -54.615901947021484 -126.1869888305664 -176.8939971923828 58.83059310913086 177.48199462890625 0.018712298944592476 -7.139780044555664 -0.18521800637245178 -0.0 0.0 -0.0 52.937294006347656 -39.076602935791016 43.667999267578125 1.4528998136520386 70.69039916992188 -3.968090057373047 7.796638488769531 -11.43899917602539 26.021297454833984
4.516855530279308 38.9293871745397 53.05463159456569 -93.10540008544922 68.99580383300781 -89.75639343261719 1.7992089986801147 40.74430465698242 -9.155838966369629 12.550999641418457 -13.169499397277832 -0.18476298451423645 -9.701539993286133 19.198400497436523 -13.681899070739746 30.264997482299805 -26.678197860717773 -20.519296646118164 -0.0 0.0 -0.0 -0.0 0.0 -0.0 2.162777064645266e-13 -9.287219430997862e-13 1.908332704098764e-13 51.33839797973633 -6.548869609832764 -10.014999389648438 -28.411500930786133 -34.526702880859375 74.55680084228516 -1.059630036354065 -27.8898983001709 -4.265629768371582 -1.605213184596721e-09 1.4961455407913604e-09 -4.559261412850901e-09 -2.679820809703415e-09 2.850578439961282e-09 -7.904142229619993e-09 -1.605213184596721e-09 1.4961073491193133e-09 -4.559267630099839e-09 7.7309088706970215 5.474880218505859 0.41731396317481995 -1.605213184596721e-09 1.4961455407913604e-09 -4.559261412850901e-09 2.9055399894714355 0.9651829600334167 0.10290198773145676 -1.6052004170319378e-09 1.4961455407913604e-09 -4.559261412850901e-09 10.27859878540039 0.73180091381073 0.025912299752235413 -1.6052258411392017e-09 1.4961455407913604e-09 -4.559248534263816e-09 2.2216696739196777 -0.7334870100021362 -0.2089199721813202 2.162777064645266e-13 -9.287219430997862e-13 1.908332704098764e-13 -5.573029041290283 47.6526985168457 -78.06520080566406 26.56329917907715 -45.093994140625 -93.65169525146484 0.7809829711914062 -24.254796981811523 3.630859136581421 1.4778255286174158e-09 -5.573438155437316e-09 2.1975405939400616e-09 2.516925556861338e-09 -9.617882490431384e-09 3.820113114727519e-09 1.4778255286174158e-09 -5.5734510340244015e-09 2.197559689776085e-09 -7.7309088706970215 5.474880218505859 -0.41731396317481995 1.4778255286174158e-09 -5.573438155437316e-09 2.1975405939400616e-09 -2.9055399894714355 0.9651829600334167 -0.10290198773145676 1.4778255286174158e-09 -5.573438155437316e-09 2.1975405939400616e-09 -10.27859878540039 0.73180091381073 -0.025912299752235413 1.477838296182199e-09 -5.573438155437316e-09 2.197527715352976e-09 -2.2216696739196777 -0.7334870100021362 0.2089199721813202 -0.0 0.0 -0.0 -116.61199188232422 -57.85450744628906 -117.27799224853516 -176.64698791503906 63.022098541259766 177.3629913330078 0.563857913017273 -6.006319999694824 1.0921399593353271 -0.0 0.0 -0.0 54.55789566040039 -39.940799713134766 45.52329635620117 1.6880396604537964 72.32099914550781 -4.167709827423096 7.9257588386535645 -11.560200691223145 26.023597717285156
